<svg xmlns="http://www.w3.org/2000/svg" xmlns:xlink="http://www.w3.org/1999/xlink" version="1.1" x="0px" y="0px" viewBox="0 0 100 125" style="enable-background:new 0 0 100 100;" xml:space="preserve"><path d="M98.9,49c0.1-0.2,0.1-0.3,0.1-0.6c0-2.1-0.1-4.1-0.3-6.2c-0.3-4.1-1-8.1-2-12.1c-0.8-3.1-1.2-7.1-4-9  c-0.3-0.2-1.4-0.6-1.7-0.1c-4.7,8.4-8.6,17.2-11.7,26.3c-0.2,0.7,1.2,1.4,1.9,1.2c0.4,0.1,0.7,0.2,1,0.1c1.5-0.9,3-1.9,4.5-3  c0.8-0.6,1.6-1.6,2.5-2.4C83.4,88.6,8.1,89.8,3.3,43.1c-0.1-0.8-2.4-1.4-2.3-0.5c4.8,47.9,84.6,49.3,90.5,1.3  c1.7,1.8,3.2,3.9,4.8,5.6c0.4,0.4,1.1,0.3,1.6,0.2C98.4,49.5,98.7,49.4,98.9,49z M92.5,42.9c-0.7-0.8-1.6-2-2.8-2.1  c-1.5-0.1-2.4,1.3-3.4,2.1c-1.2,1.1-2.4,2-3.8,2.9c2.9-7.8,6.3-15.4,10.3-22.7c1.9,3.1,2.5,9.6,2.9,12.2c0.7,4.1,1,8.1,1,12.3  C95.3,46.1,93.9,44.5,92.5,42.9z"/><text x="0" y="115" fill="#000000" font-size="5px" font-weight="bold" font-family="'Helvetica Neue', Helvetica, Arial-Unicode, Arial, Sans-serif">Created by Darshana Girkar</text><text x="0" y="120" fill="#000000" font-size="5px" font-weight="bold" font-family="'Helvetica Neue', Helvetica, Arial-Unicode, Arial, Sans-serif">from the Noun Project</text></svg>