<svg xmlns="http://www.w3.org/2000/svg" version="1.1" xmlns:xlink="http://www.w3.org/1999/xlink" width="500"
    height="158" viewBox="0 0 500 158"><svg xml:space="preserve" width="500" height="158" data-version="2"
        data-id="lg_X04sCml6VnYygbXeh1" viewBox="0 0 561 158" x="0" y="0">
        <rect width="100%" height="100%" fill="transparent"></rect>
        <rect width="125.29" height="125.29" x="-62.64" y="-62.64" fill="#ffe300" rx="29" ry="29"
            transform="translate(83.04 79)scale(1.2348)"></rect>
        <path fill="#fff" d="M192.02 120.58h13.57V79.22h40.29v41.36h13.57V30.81h-13.57v38.96h-40.29V30.81h-13.57Z"
            paint-order="stroke"></path>
        <rect width="67.43" height="89.77" x="-33.72" y="-44.88" fill="none" rx="0" ry="0"
            transform="translate(226.24 76.2)"></rect>
        <path fill="#fff" d="M277.01 120.58h13.5V41.71h-13.5Zm0-100.41v11.9h13.5v-11.9Z" paint-order="stroke"></path>
        <rect width="13.5" height="100.41" x="-6.75" y="-50.2" fill="none" rx="0" ry="0"
            transform="translate(284.26 70.88)"></rect>
        <path
            fill="#fff"
            d="M354.68 78.49h13.43q0-19.49-5.22-28.43-5.22-8.95-18.65-8.95-13.04 0-20.75 7.12-7.71 7.11-7.71 17.22l5.18 3.79q0-7.25 4.92-13t13.5-5.75q7.52 0 11.41 5.88 3.89 5.89 3.89 22.12m-47.08 42.09h13.43V57.01l-2.86-15.23H307.6Z"
            paint-order="stroke"></path>
        <rect width="60.51" height="79.47" x="-30.25" y="-39.73" fill="none" rx="0" ry="0"
            transform="translate(338.36 81.34)"></rect>
        <path
            d="M412.87 121.25v-8.92q-10.11 0-15.76-7.38-5.72-7.25-5.72-23.94 0-17.62 5.91-24.4 5.86-6.72 15.37-6.72 9.77 0 15.22 6.39 4.73 5.98 5.26 20.48h-43.23v8.38h56.53q.26-2 .26-4.33 0-19.75-7.84-29.79-7.92-10.04-26.2-10.04-17.76 0-26.01 10.04-8.31 9.98-8.31 29.99 0 18.89 8.12 29.6 8.04 10.64 26.4 10.64m0-8.92v8.92q9.97 0 16.49-2.6 6.51-2.59 10.64-8.31 4.05-5.65 5.18-13.77l-12.1-3.25q-1.13 5.85-3.39 10.5-2.39 4.66-6.72 6.59-4.32 1.92-10.1 1.92"
            fill="#fff"
            paint-order="stroke"></path>
        <rect width="68.36" height="80.27" x="-34.18" y="-40.13" fill="none" rx="0" ry="0"
            transform="translate(413.03 81.61)"></rect>
        <path
            fill="#fff"
            d="M485.42 121.31q5.78 0 10.34-1.03 4.55-1.03 7.88-2.66 3.32-1.63 5.45-3.49 2.13-1.86 2.99-3.52l1.13 9.97h11.24V70.44q0-10.64-3.82-17.09-3.82-6.45-11.14-9.38-7.31-2.92-17.82-2.92-6.25 0-11.71 1.29-5.45 1.3-9.74 4.09-4.29 2.8-7.18 7.32-2.89 4.52-3.96 11.04l13.17 3.52q1-6.58 3.62-10.54 2.63-3.96 6.69-5.75 4.05-1.8 9.17-1.8 5.92 0 10.25 2 4.32 1.99 6.65 6.28 2.32 4.29 2.32 11.27v4.46h-25.73q-6.19 0-11.17 1.13-4.99 1.13-8.48 3.76-3.49 2.62-5.36 7.11-1.86 4.49-1.86 11.28 0 7.04 1.9 11.67 1.89 4.62 5.52 7.28 3.62 2.66 8.57 3.75 4.96 1.1 11.08 1.1m2.92-8.84q-3.39 0-6.38-.7-2.99-.7-5.25-2.36-2.27-1.66-3.5-4.66-1.23-2.99-1.23-7.78 0-4.65 1.27-7.64 1.26-3 3.49-4.63 2.23-1.63 5.22-2.26 2.99-.63 6.38-.63h22.41v20.55q-1.13 2.46-4.12 4.79t-7.61 3.82q-4.63 1.5-10.68 1.5"
            paint-order="stroke"></path>
        <rect width="66.1" height="80.26" x="-33.05" y="-40.13" fill="none" rx="0" ry="0"
            transform="translate(491.9 81.68)"></rect>
        <path fill="#fff" d="M540.81 120.58h13.5V41.71h-13.5Zm0-100.41v11.9h13.5v-11.9Z" paint-order="stroke"></path>
        <rect width="13.5" height="100.41" x="-6.75" y="-50.2" fill="none" rx="0" ry="0"
            transform="translate(548.06 70.88)"></rect>
        <path
            d="m71.126 113.471-4.734-33.354-4.734 33.338-4.734-33.338-4.734 33.321L47.456 80.1l-4.734 33.338-4.75-33.338-4.734 33.355-4.734-33.338-4.734 33.321-7.201-50.757 4.95-.7L23.77 77.9l4.735-33.355 4.734 33.338 4.734-33.321 4.75 33.338 4.734-33.338L52.19 77.9l4.734-33.355 4.734 33.338 4.734-33.338 4.734 33.338 4.734-33.338 4.734 33.338 4.734-33.338L90.062 77.9l4.734-33.338 4.75 33.338 4.735-33.338 4.734 33.338 4.75-33.321 4.735 33.32 4.734-33.337 4.75 33.355 4.734-33.338 4.75 33.354 4.752-33.321 7.234 50.707-4.95.7-2.284-15.969-4.751 33.355-4.75-33.322-4.735 33.338-4.734-33.32-4.75 33.337-4.734-33.355-4.751 33.355L104.28 80.1l-4.734 33.338-4.75-33.338-4.735 33.338-4.734-33.321-4.734 33.338-4.734-33.338z">
        </path>
    </svg></svg>